<svg id="Layer_1" data-name="Layer 1" xmlns="http://www.w3.org/2000/svg" viewBox="0 0 142 153.9"><defs><style>.cls-1{fill:#fff;}</style></defs><title>light-bulb</title><path class="cls-1" d="M13.4,11.4h142V165.3H13.4ZM89.3,119c3.8,0,7.5-.1,11.3.1s5.8-2.1,5.6-5.4c-.5-6.1,2.1-11,5.6-15.7,5-6.7,7.3-14,5.7-22.3-2.8-14.8-16.3-24.9-32-23-10.7,1.4-18.5,7.2-22.7,17s-3.2,17.9,2.4,26.1c4,5.8,8,11.4,7.2,18.9-.3,2.7,2,4.3,4.8,4.3Zm-.3,7.1h12.3c2.1,0,3.5-1,3.6-2.6s-1.6-2.9-3.5-2.9H77c-2.1,0-3.4,1.2-3.4,2.7s1.4,2.8,3.6,2.8Zm.2,7.1h12.1c2.1,0,3.5-1.1,3.6-2.6s-1.7-2.9-3.6-2.9H77.2c-1.9,0-3.7,1.5-3.6,2.9s1.5,2.6,3.5,2.6Zm-12.3,2c.8,3.1,3.5,4.4,5.5,5.9s7.1,1.2,10.7,1.1,8.3-4.9,8-7ZM50,79.4H39.6c-1.7,0-3.4-.1-5.1,0s-2.9.6-2.8,2.2,1.2,2.2,2.9,2.1,5.3,0,7.9,0H50Zm78.5,4.3c5.3,0,10.4-.1,15.5,0a2.5,2.5,0,0,0,2.9-2c.2-.9-1.5-2.3-3-2.3s-5.1,0-7.6,0h-7.8ZM60.1,107c-3.9,3.9-7.7,7.5-11.4,11.3a3.2,3.2,0,0,0-.3,2.7c.2.4,1.5.6,2.2.8a1.5,1.5,0,0,0,.9-.4l11.6-11.3Zm55.2,3.2c3.9,3.7,7.7,7.5,11.7,11.1a3.3,3.3,0,0,0,2.9-.2c.4-.3.4-2.2,0-2.7l-11.4-11.2ZM63,53.2,51.8,42.3c-.8-.8-1.7-1.7-3-.4s-1.1,2.3.1,3.4L60,56.2Zm55.5,2.9,11.1-10.8c1.2-1.1,1.1-2.2.1-3.4s-2.2-.3-3,.5c-3.8,3.5-7.5,7.1-11.2,10.8ZM91.3,43.5V27.8c0-1.3-.6-2.3-2.1-2.2s-2,1-2,2.3V43.5Z" transform="translate(-13.4 -11.4)"/><path d="M89.3,119H77.2c-2.8,0-5.1-1.6-4.8-4.3.8-7.5-3.2-13.1-7.2-18.9-5.6-8.2-6.3-17.1-2.4-26.1s12-15.6,22.7-17c15.7-1.9,29.2,8.2,32,23,1.6,8.3-.7,15.6-5.7,22.3-3.5,4.7-6.1,9.6-5.6,15.7.2,3.3-1.9,5.5-5.6,5.4S93.1,119,89.3,119Zm-.1-4.3c3.5,0,6.9-.1,10.3.1,1.8,0,2.4-.6,2.3-2.3-.5-6.3,2.3-11.4,5.9-16.3s5.3-8.1,5.7-12.9a23.4,23.4,0,0,0-8.7-21,23.6,23.6,0,0,0-18.9-5.2c-9,1.3-15.6,6.2-19.1,14.6S64.8,87.8,70.1,95c3.8,5.4,7.2,10.9,6.6,17.9-.1,1.4.4,1.9,1.9,1.8Z" transform="translate(-13.4 -11.4)"/><path d="M89,126.1H77.2c-2.2,0-3.7-1.2-3.6-2.8s1.3-2.7,3.4-2.7h24.4c1.9,0,3.6,1.5,3.5,2.9s-1.5,2.6-3.6,2.6Z" transform="translate(-13.4 -11.4)"/><path d="M89.2,133.2H77.1c-2,0-3.4-1.1-3.5-2.6s1.7-2.9,3.6-2.9h24.1c1.9,0,3.7,1.5,3.6,2.9s-1.5,2.6-3.6,2.6Z" transform="translate(-13.4 -11.4)"/><path d="M76.9,135.2h24.2c.3,2.1-5,6.9-8,7s-7.6,1.1-10.7-1.1S77.7,138.3,76.9,135.2Z" transform="translate(-13.4 -11.4)"/><path d="M50,79.4v4.3H42.5c-2.6,0-5.3-.1-7.9,0s-2.9-.5-2.9-2.1,1.4-2.1,2.8-2.2,3.4,0,5.1,0Z" transform="translate(-13.4 -11.4)"/><path d="M128.5,83.7V79.4h7.8c2.5,0,5.1-.1,7.6,0s3.2,1.4,3,2.3a2.5,2.5,0,0,1-2.9,2C138.9,83.6,133.8,83.7,128.5,83.7Z" transform="translate(-13.4 -11.4)"/><path d="M60.1,107l3,3.1L51.5,121.4a1.5,1.5,0,0,1-.9.4c-.7-.2-2-.4-2.2-.8a3.2,3.2,0,0,1,.3-2.7C52.4,114.5,56.2,110.9,60.1,107Z" transform="translate(-13.4 -11.4)"/><path d="M115.3,110.2l3.2-3,11.4,11.2c.4.5.4,2.4,0,2.7a3.3,3.3,0,0,1-2.9.2C123,117.7,119.2,113.9,115.3,110.2Z" transform="translate(-13.4 -11.4)"/><path d="M63,53.2l-3,3L48.9,45.3c-1.2-1.1-1.1-2.2-.1-3.4s2.2-.4,3,.4Z" transform="translate(-13.4 -11.4)"/><path d="M118.5,56.1l-3-2.9c3.7-3.7,7.4-7.3,11.2-10.8.8-.8,1.7-1.8,3-.5s1.1,2.3-.1,3.4Z" transform="translate(-13.4 -11.4)"/><path d="M91.3,43.5H87.2V27.9c0-1.3.5-2.3,2-2.3s2.1.9,2.1,2.2Z" transform="translate(-13.4 -11.4)"/><path class="cls-1" d="M89.2,114.7H78.6c-1.5.1-2-.4-1.9-1.8.6-7-2.8-12.5-6.6-17.9-5.3-7.2-6.7-15-3.4-23.3S76.8,58.4,85.8,57.1a23.6,23.6,0,0,1,18.9,5.2,23.4,23.4,0,0,1,8.7,21c-.4,4.8-2.9,9-5.7,12.9s-6.4,10-5.9,16.3c.1,1.7-.5,2.3-2.3,2.3C96.1,114.6,92.7,114.7,89.2,114.7ZM88.1,59.8a18.6,18.6,0,0,0-3.3.4c-8.5,1.9-14,7.1-17,15-.5,1.3-.1,1.9.9,2.6a1.7,1.7,0,0,0,2.7-.6c.5-.7.8-1.6,1.3-2.3a57.2,57.2,0,0,1,4.6-6.1c3-3.3,7.2-4.3,11.5-4.7,1.6-.2,2.1-1,2-2.1A2.3,2.3,0,0,0,88.1,59.8Z" transform="translate(-13.4 -11.4)"/><path d="M88.1,59.8A2.3,2.3,0,0,1,90.8,62c.1,1.1-.4,1.9-2,2.1-4.3.4-8.5,1.4-11.5,4.7a57.2,57.2,0,0,0-4.6,6.1c-.5.7-.8,1.6-1.3,2.3a1.7,1.7,0,0,1-2.7.6c-1-.7-1.4-1.3-.9-2.6,3-7.9,8.5-13.1,17-15A18.6,18.6,0,0,1,88.1,59.8Z" transform="translate(-13.4 -11.4)"/></svg>
